<?xml version="1.0" encoding="UTF-8"?>
<svg id="Layer_1" xmlns="http://www.w3.org/2000/svg" version="1.1" viewBox="0 0 800 800">
  <!-- Generator: Adobe Illustrator 29.6.1, SVG Export Plug-In . SVG Version: 2.1.1 Build 9)  -->
  <defs>
    <style>
      .st0 {
        fill: none;
        stroke: #231f20;
        stroke-linecap: round;
        stroke-linejoin: round;
        stroke-width: 50px;
      }
    </style>
  </defs>
  <g id="SVGRepo_iconCarrier">
    <path class="st0" d="M743.09,192.99l-352.93,352.93c-35.15,35.15-139.47,51.42-162.78,28.12-23.31-23.31-7.4-127.63,27.75-162.78L608.43,57.95c8.71-9.51,19.26-17.15,31.01-22.46,11.75-5.32,24.45-8.2,37.34-8.47,12.89-.27,25.7,2.07,37.66,6.89,11.96,4.82,22.82,12.01,31.93,21.14,9.1,9.13,16.27,20.01,21.05,31.98,4.78,11.97,7.1,24.79,6.79,37.68-.31,12.89-3.23,25.59-8.57,37.32-5.35,11.73-13.02,22.26-22.55,30.95h0Z"/>
    <path class="st0" d="M362.78,104.2h-184.98c-39.25,0-76.88,15.59-104.64,43.34-27.75,27.75-43.34,65.39-43.34,104.64v369.95c0,39.25,15.59,76.89,43.34,104.64,27.75,27.75,65.39,43.34,104.64,43.34h406.95c81.76,0,110.99-66.59,110.99-147.98v-184.98"/>
  </g>
</svg>