<?xml version="1.0" encoding="UTF-8"?>
<svg id="Layer_1" xmlns="http://www.w3.org/2000/svg" version="1.1" viewBox="0 0 466.67 466.67">
  <!-- Generator: Adobe Illustrator 29.6.1, SVG Export Plug-In . SVG Version: 2.1.1 Build 9)  -->
  <defs>
    <style>
      .st0 {
        fill: #231f20;
      }
    </style>
  </defs>
  <path class="st0" d="M409.76,9.76c13.02-13.02,34.12-13.02,47.14,0,13.02,13.02,13.02,34.12,0,47.14l-176.43,176.43,176.43,176.43c13.02,13.02,13.02,34.12,0,47.14s-34.12,13.02-47.14,0l-176.43-176.43L56.9,456.9c-13.02,13.02-34.12,13.02-47.14,0s-13.02-34.12,0-47.14l176.43-176.43L9.76,56.9C-3.25,43.89-3.25,22.78,9.76,9.76c13.02-13.02,34.12-13.02,47.14,0l176.43,176.43L409.76,9.76Z"/>
</svg>