<?xml version="1.0" encoding="UTF-8"?>
<svg id="Layer_1" data-name="Layer 1" xmlns="http://www.w3.org/2000/svg" viewBox="0 0 466.67 466.67">
  <defs>
    <style>
      .cls-1 {
        fill: #fff;
      }
    </style>
  </defs>
  <path class="cls-1" d="M409.76,9.76c13.02-13.02,34.12-13.02,47.14,0,13.02,13.02,13.02,34.12,0,47.14l-176.43,176.43,176.43,176.43c13.02,13.02,13.02,34.12,0,47.14-13.02,13.02-34.12,13.02-47.14,0l-176.43-176.43L56.9,456.9c-13.02,13.02-34.12,13.02-47.14,0-13.02-13.02-13.02-34.12,0-47.14l176.43-176.43L9.76,56.9C-3.25,43.89-3.25,22.78,9.76,9.76c13.02-13.02,34.12-13.02,47.14,0l176.43,176.43L409.76,9.76Z"/>
</svg>